<svg id="Layer_1" data-name="Layer 1" xmlns="http://www.w3.org/2000/svg" viewBox="0 0 825.96 789.2"><defs><style>.cls-1{fill:#d60664;}.cls-2{fill:#fff;}</style></defs><rect class="cls-1" x="7.74" width="818.22" height="789.2" rx="52.98"/><path class="cls-2" d="M859.22,361.33c2.8,5.06,13.74,8.36,20.68,8.06,32.77-1.54,65.53-3.21,73.08-3.24V425c-7.3-3.41-39.73-5.08-72.2-6.54-7.1-.33-17.72,2.42-21.11,7.48C825.53,477.3,774.25,489.34,718,487.92c-36.74-.92-71.17-11.54-99.59-36.57-38.66-34.15-38.32-81.29.71-115.1C687.07,277.33,821.69,292.92,859.22,361.33Z" transform="translate(-127.02 -145.4)"/><path class="cls-2" d="M338.42,724.65c-14.57-.69-27.9,9.58-39.16,20.8-8.5,8.47-16.61,17.92-21.91,29.6s-7.51,26-3.85,38.55,14,22.58,25,21.66c12.78-1.08,37.47-39.53,29.58-27.3-11.3,17.51-11.46,12.19,30.6-37.91,10.45-12.45,27-16.1,41.48-13.32Z" transform="translate(-127.02 -145.4)"/><path class="cls-2" d="M905.37,593.59q-7.82,10.92-16,21.57c-2.71,3.58-5.54,7-8.36,10.54l-4.22,5.23-4.31,5.17Q855.22,656.79,836.18,676c-25.41,25.53-53.24,49-83.71,68.91-3.8,2.5-7.7,4.86-11.55,7.29s-7.85,4.63-11.78,6.95-8,4.39-12,6.53L711,768.77c-2,1-4.06,2.09-6.15,3a364.86,364.86,0,0,1-51.26,20l-3.3,1-3.32.93-6.67,1.81c-2.21.63-4.47,1.08-6.71,1.63l-6.73,1.56L620,800c-2.26.43-4.51.92-6.8,1.26-4.55.7-9.09,1.55-13.68,2.05a333.72,333.72,0,0,1-55.28,2.36,353.68,353.68,0,0,1-54.8-7,374.31,374.31,0,0,1-52.89-15.26,434.06,434.06,0,0,1-50-22.24c-4-2.11-8.08-4.21-12-6.47s-8-4.41-11.84-6.78-7.8-4.65-11.61-7.12-7.68-4.83-11.43-7.39a634.08,634.08,0,0,1-84.4-67.71c-13-12.39-25.72-25.12-37.82-38.37-3-3.3-6-6.67-9-10s-5.95-6.69-8.87-10.09c-5.84-6.79-11.54-13.7-17.17-20.66q4.9,4.59,9.76,9.22c3.21,3.1,6.53,6.1,9.81,9.13s6.5,6.12,9.83,9.09,6.58,6,9.92,9q20,17.79,40.66,34.59c27.58,22.37,56.34,43.13,86.53,61.24,3.73,2.33,7.57,4.48,11.38,6.68s7.66,4.3,11.52,6.39c1.94,1,3.83,2.13,5.79,3.12l5.84,3c3.88,2.06,7.84,3.93,11.78,5.83a461.49,461.49,0,0,0,48.39,19.95c2,.75,4.13,1.36,6.2,2l6.2,2q6.24,1.88,12.51,3.66l6.3,1.62c2.1.53,4.19,1.12,6.31,1.56l6.34,1.42,3.18.71,3.19.6a337.76,337.76,0,0,0,51.42,6.27,318.84,318.84,0,0,0,51.69-1.92c4.3-.4,8.55-1.14,12.83-1.73,2.15-.28,4.26-.72,6.39-1.09l6.38-1.16,6.33-1.38c2.11-.48,4.24-.86,6.33-1.43l6.3-1.58,3.15-.8,3.12-.89a377.79,377.79,0,0,0,49-17.54,431.53,431.53,0,0,0,46.61-24c30.23-17.81,58.61-39,85.47-62.15C842.29,656.58,855.27,644.43,868,632l4.79-4.67,4.7-4.75c3.14-3.16,6.28-6.33,9.35-9.57s6.26-6.38,9.3-9.65S902.28,596.83,905.37,593.59Z" transform="translate(-127.02 -145.4)"/><path class="cls-2" d="M209.89,439.88c-11.84-17.75-26.58-22-48.2-20.56-23.76,1.6-47.47,3.15-26.7,5.66v-57.8c-15.93.69,12.64,2.34,41.24,3.94,7.91.44,19.59-4.46,23.86-10.72,31.33-46.4,74.58-54.16,126.8-47.28C381.83,320.3,437.64,321,493,325.73c7.47.63,14.4,8.1,21.58,12.42-7.67,3.63-15.28,10.28-23,10.42-59.49.87-119,.05-178.54.87-9.26.15-18.37,6-27.54,9.12,9.65,3,19.25,8.34,28.95,8.49,57.94.77,115.84.24,173.79.53,8.72.05,17.45,2.18,26.18,3.34.1,3.16.19,6.36.24,9.56-8.58,1.35-17.21,3.83-25.79,3.88-58.72.34-117.45.14-176.17.19-5.57,0-11.54-1.16-16.53.53-4.41,1.51-7.66,6.21-11.44,9.51,4.17,2.71,8.09,7.27,12.46,7.71,11,1.16,22.21.48,33.31.48,52.37,0,104.74-.19,157.15.15,8.78.05,17.56,2.23,26.33,3.44.29,3,.63,6,1,8.92-7.71,1.89-15.42,5.38-23.13,5.43-61.92.44-123.79-.05-185.71.68-7.08.1-14.06,5.72-21.09,8.83,6.88,3.2,13.77,9.16,20.7,9.26,61.92.73,123.8.1,185.72.92,7.75.1,15.46,6.3,23.17,9.7-7.9,4.46-15.56,12.17-23.8,12.8-64.06,4.9-128.45,6.5-192.31,13.09C260.65,479.93,231.12,471.78,209.89,439.88Z" transform="translate(-127.02 -145.4)"/></svg>