<svg id="Layer_1" data-name="Layer 1" xmlns="http://www.w3.org/2000/svg" viewBox="0 0 791.73 582.98"><defs><style>.cls-1,.cls-2{fill:#fff;}.cls-2{font-size:23px;font-family:Calibri-Bold, Calibri;font-weight:700;}.cls-3{letter-spacing:-0.01em;}.cls-4{letter-spacing:-0.09em;}.cls-5{letter-spacing:-0.01em;}.cls-6{letter-spacing:-0.01em;}.cls-7{letter-spacing:-0.01em;}</style></defs><rect class="cls-1" x="263" width="276.19" height="266.4" rx="52.98"/><path class="cls-1" d="M651.67,321.4c1,1.7,4.64,2.82,7,2.72,11.06-.52,22.12-1.09,24.66-1.1V342.9c-2.46-1.15-13.41-1.71-24.37-2.21-2.4-.11-6,.82-7.12,2.53C640.3,360.54,623,364.61,604,364.13c-12.4-.31-24-3.9-33.61-12.35-13-11.52-12.94-27.44.24-38.85C593.57,293,639,298.3,651.67,321.4Z" transform="translate(-144.13 -248.51)"/><path class="cls-1" d="M475.88,444c-4.92-.24-9.42,3.23-13.22,7a34,34,0,0,0-7.39,10,19.28,19.28,0,0,0-1.3,13c1.23,4.24,4.73,7.62,8.44,7.31,4.31-.36,12.64-13.34,10-9.22-3.81,5.92-3.87,4.12,10.33-12.79,3.53-4.2,9.11-5.44,14-4.5Z" transform="translate(-144.13 -248.51)"/><path class="cls-1" d="M667.25,399.8a229.67,229.67,0,0,1-23.39,27.77,174.27,174.27,0,0,1-28.26,23.24,131.85,131.85,0,0,1-33.35,15.85,109,109,0,0,1-36.88,4.67A118.78,118.78,0,0,1,509,463.88l-4.3-1.72c-1.42-.6-2.89-1.1-4.26-1.79l-4.19-2c-1.39-.66-2.79-1.29-4.13-2l-4.06-2.18c-1.35-.73-2.71-1.44-4-2.27l-3.91-2.43c-1.3-.81-2.62-1.59-3.86-2.48-2.5-1.76-5.06-3.43-7.51-5.25s-4.88-3.67-7.26-5.57l-7-5.89c-2.29-2-4.51-4.08-6.74-6.13a283.34,283.34,0,0,1-24.62-26.69c8.8,8.29,17.67,16.42,27,24A249.63,249.63,0,0,0,479.4,442.1q7.68,4.54,15.64,8.44c1.31.7,2.67,1.26,4,1.85l4.06,1.77c1.33.63,2.74,1.06,4.12,1.59l4.13,1.52c2.8.91,5.61,1.75,8.41,2.61l4.27,1c1.43.32,2.83.76,4.28,1l4.32.76,2.15.38,2.18.23,4.35.47c.72.1,1.45.12,2.18.15l2.18.08c1.45.05,2.91.16,4.37.17l4.36-.12c2.92,0,5.81-.43,8.71-.66,1.46-.08,2.89-.4,4.33-.61l4.32-.71,4.26-1c1.41-.37,2.86-.59,4.25-1.06a136.77,136.77,0,0,0,32.28-14c1.26-.76,2.58-1.46,3.81-2.27l3.72-2.45c1.22-.83,2.5-1.59,3.69-2.49l3.62-2.61c1.19-.89,2.44-1.71,3.6-2.64l3.5-2.79c1.16-.93,2.35-1.84,3.5-2.8l3.38-2.94A340.26,340.26,0,0,0,667.25,399.8Z" transform="translate(-144.13 -248.51)"/><path class="cls-1" d="M335.1,740.64c-14.65-.57-28,7.87-39.36,17.08-8.55,6.95-16.7,14.7-22,24.3s-7.55,21.32-3.87,31.64S283.94,832.2,295,831.44c12.84-.88,37.65-32.44,29.73-22.41-11.36,14.38-11.52,10,30.76-31.12,10.5-10.22,27.14-13.22,41.69-10.94Z" transform="translate(-144.13 -248.51)"/><path class="cls-1" d="M905,633a635.6,635.6,0,0,1-74.72,70.74,518.26,518.26,0,0,1-86.69,56.5,444.39,444.39,0,0,1-47.61,21.06A399.78,399.78,0,0,1,594.36,805,399.09,399.09,0,0,1,542,806.67a422.18,422.18,0,0,1-52-5.27,445.84,445.84,0,0,1-50.9-11.6A509.11,509.11,0,0,1,343,750.47a650.07,650.07,0,0,1-87-55.72,778.75,778.75,0,0,1-77.71-67.39c26.85,21.25,54,41.93,82.53,60.57A757.68,757.68,0,0,0,349,738.54l11.47,5.4,11.58,5.14L383.73,754l11.76,4.64c15.77,6,31.76,11.28,48,15.65a451.25,451.25,0,0,0,49.21,10.55,414.7,414.7,0,0,0,50,4.86,390.46,390.46,0,0,0,50.15-1.35,408.34,408.34,0,0,0,49.63-7.53,449.69,449.69,0,0,0,95.25-32.49,577.76,577.76,0,0,0,87.57-51.19C853.13,677.67,879.44,655.87,905,633Z" transform="translate(-144.13 -248.51)"/><path class="cls-1" d="M432.49,347.91c-4-6-9-7.43-16.27-6.94-8,.54-16,1.06-9,1.91V323.37c-5.37.23,4.27.79,13.92,1.33,2.67.15,6.62-1.51,8.06-3.62,10.57-15.66,25.17-18.28,42.8-16,18.54,2.43,37.38,2.66,56.06,4.26,2.52.21,4.86,2.73,7.28,4.19-2.59,1.23-5.16,3.47-7.76,3.52-20.08.29-40.18,0-60.26.29-3.13.05-6.21,2-9.3,3.08,3.26,1,6.5,2.82,9.77,2.87,19.56.26,39.1.08,58.66.18a68.51,68.51,0,0,1,8.84,1.13c0,1.06.07,2.14.08,3.22-2.89.46-5.81,1.29-8.7,1.31-19.83.11-39.65.05-59.47.06-1.88,0-3.89-.39-5.58.18-1.49.51-2.59,2.1-3.86,3.21,1.41.92,2.73,2.46,4.2,2.61a108.16,108.16,0,0,0,11.25.16c17.68,0,35.35-.07,53.05.05,3,0,5.92.75,8.88,1.16.1,1,.22,2,.33,3-2.6.64-5.2,1.82-7.81,1.83-20.9.15-41.78,0-62.68.23-2.39,0-4.75,1.94-7.12,3,2.32,1.08,4.64,3.1,7,3.13,20.91.24,41.79,0,62.69.31,2.62,0,5.22,2.13,7.83,3.27-2.67,1.51-5.26,4.11-8,4.32-21.62,1.66-43.36,2.2-64.91,4.42C449.63,361.43,439.66,358.68,432.49,347.91Z" transform="translate(-144.13 -248.51)"/><path class="cls-1" d="M597.15,601.29c-2.39,1.59-3,3.57-2.77,6.48.22,3.2.43,6.39.63,9.59h-7.78q.35-5.77.67-11.54a4.21,4.21,0,0,0-1.44-3.21c-6.25-4.22-7.29-10-6.37-17.07,1-7.39,1.06-14.9,1.7-22.34.08-1,1.09-1.94,1.67-2.91.49,1,1.38,2.06,1.4,3.1.12,8,0,16,.12,24,0,1.25.8,2.47,1.23,3.71a15,15,0,0,0,1.14-3.9c.1-7.8,0-15.59.07-23.38a28.4,28.4,0,0,1,.45-3.53l1.29,0a24.66,24.66,0,0,1,.52,3.47c0,7.9,0,15.81,0,23.71a7.11,7.11,0,0,0,.08,2.22c.2.59.83,1,1.27,1.54.37-.56,1-1.09,1-1.68a41.78,41.78,0,0,0,.07-4.48c0-7,0-14.09,0-21.14a26.73,26.73,0,0,1,.46-3.55l1.2-.13a14.15,14.15,0,0,1,.73,3.11c.06,8.34,0,16.66.09,25,0,1,.77,1.9,1.19,2.84.43-.92,1.23-1.85,1.25-2.78.09-8.34,0-16.66.12-25,0-1,.85-2.08,1.31-3.12.6,1.06,1.63,2.09,1.72,3.2.66,8.62.87,17.29,1.76,25.88C602.54,594.46,601.44,598.43,597.15,601.29Z" transform="translate(-144.13 -248.51)"/><path class="cls-1" d="M684.79,600.36c-.78.43-1.28,2.11-1.24,3.18q.36,7.53.76,15.07h-9q.4-7.47.75-14.94c.05-1.09-.38-2.72-1.15-3.24-7.88-5.24-9.72-13.11-9.5-21.74A23.34,23.34,0,0,1,671,563.4c5.24-5.93,12.47-5.88,17.66.11C697.68,574,695.29,594.6,684.79,600.36Z" transform="translate(-144.13 -248.51)"/><text class="cls-2" transform="translate(83.13 404.09)">JO APNON SE KARE <tspan class="cls-3" x="188.77" y="0">P</tspan><tspan class="cls-4" x="200.87" y="0">Y</tspan><tspan x="210.85" y="0">AR, </tspan><tspan class="cls-5" x="248.87" y="0">W</tspan><tspan x="269.43" y="0">O HOME</tspan><tspan class="cls-6" x="351.57" y="0">F</tspan><tspan x="361.96" y="0">OOD SE K</tspan><tspan class="cls-7" x="452.63" y="0">E</tspan><tspan x="463.63" y="0">SE KARE INKAAR</tspan></text><path class="cls-1" d="M148.13,540.68h14.08v31.9l16-17.58,16,17.58v-31.9h14.08v79.37H194.29V584.86l-16-17.58-16,17.58v35.19H148.13Z" transform="translate(-144.13 -248.51)"/><path class="cls-1" d="M231.09,580.05c0-25.68,14.32-40.82,35-40.82s35,15.21,35,40.82-14.32,41.45-35,41.45S231.09,605.73,231.09,580.05Zm55.53,0c0-17.81-8.05-28.59-20.53-28.59s-20.53,10.78-20.53,28.59,8.06,29.22,20.53,29.22S286.62,597.87,286.62,580.05Z" transform="translate(-144.13 -248.51)"/><path class="cls-1" d="M323.74,540.68h15.92l14,38.79c1.74,5,3.35,10.39,5.09,15.58h.49c1.75-5.19,3.25-10.53,5-15.58L378,540.68h15.92v79.37H381V583.74c0-7.33,1.11-17.89,1.79-25.24h-.48l-6.41,18.44L362.86,612.6h-8.35l-13.1-35.66L335.1,558.5h-.49c.68,7.35,1.8,17.91,1.8,25.24v36.31H323.74Z" transform="translate(-144.13 -248.51)"/><path class="cls-1" d="M420.82,540.68h47.77v11.85H434.9v20.34h28.54v11.84H434.9V608.2h34.9v11.85h-49Z" transform="translate(-144.13 -248.51)"/><path class="cls-1" d="M492.79,540.68h48v11.85H506.87v22.52H535.7v11.84H506.87v33.16H492.79Z" transform="translate(-144.13 -248.51)"/><path class="cls-1" d="M556,580.05c0-25.68,14.32-40.82,35-40.82s35,15.21,35,40.82-14.32,41.45-35,41.45S556,605.73,556,580.05Zm55.53,0c0-17.81-8.06-28.59-20.53-28.59s-20.54,10.78-20.54,28.59,8.06,29.22,20.54,29.22S611.5,597.87,611.5,580.05Z" transform="translate(-144.13 -248.51)"/><path class="cls-1" d="M644.44,580.05c0-25.68,14.32-40.82,35-40.82s35,15.21,35,40.82-14.31,41.45-35,41.45S644.44,605.73,644.44,580.05Zm55.53,0c0-17.81-8.06-28.59-20.53-28.59s-20.54,10.78-20.54,28.59,8.06,29.22,20.54,29.22S700,597.87,700,580.05Z" transform="translate(-144.13 -248.51)"/><path class="cls-1" d="M737.08,540.68h21.17c24.32,0,38.69,13.11,38.69,39.37s-14.37,40-38,40h-21.9Zm20.25,68c16,0,25.14-9.08,25.14-28.59s-9.17-28-25.14-28h-6.17v56.55Z" transform="translate(-144.13 -248.51)"/><path class="cls-1" d="M830.43,590.54l-23.88-49.86H821.6L830.24,561c2.33,5.9,4.56,11.41,7.06,17.45h.49c2.5-6,5-11.55,7.3-17.45l8.64-20.29h14.66l-23.88,49.86v29.51H830.43Z" transform="translate(-144.13 -248.51)"/><path class="cls-1" d="M897.91,590.54,874,540.68h15L897.71,561c2.33,5.9,4.57,11.41,7.07,17.45h.48c2.5-6,5-11.55,7.31-17.45l8.64-20.29h14.66L912,590.54v29.51H897.91Z" transform="translate(-144.13 -248.51)"/></svg>